<?xml version="1.0" encoding="UTF-8"?>
<svg version="1.1" xmlns="http://www.w3.org/2000/svg" width="1498" height="1499">
<path d="M0 0 C494.34 0 988.68 0 1498 0 C1498 494.67 1498 989.34 1498 1499 C1003.66 1499 509.32 1499 0 1499 C0 1004.33 0 509.66 0 0 Z " fill="#000000" transform="translate(0,0)"/>
<path d="M0 0 C330 0 660 0 1000 0 C1000 330 1000 660 1000 1000 C670 1000 340 1000 0 1000 C0 670 0 340 0 0 Z " fill="#000000" transform="translate(250,250)"/>
<path d="M0 0 C330 0 660 0 1000 0 C1000 330 1000 660 1000 1000 C670 1000 340 1000 0 1000 C0 670 0 340 0 0 Z M36 36 C36 342.24 36 648.48 36 964 C342.24 964 648.48 964 964 964 C964 657.76 964 351.52 964 36 C657.76 36 351.52 36 36 36 Z " fill="#FCFCFC" transform="translate(250,250)"/>
<path d="M0 0 C35.2275 -0.0825 70.455 -0.165 106.75 -0.25 C117.84463867 -0.28641602 128.93927734 -0.32283203 140.37011719 -0.36035156 C153.99072266 -0.37841797 153.99072266 -0.37841797 160.38116455 -0.3817749 C164.81370162 -0.38547901 169.24604414 -0.40037834 173.67852783 -0.42230225 C179.35517671 -0.45000246 185.03154796 -0.4579165 190.70825815 -0.4522891 C192.77738331 -0.45346357 194.84651948 -0.46123797 196.91558599 -0.47686052 C231.23493033 -0.72368043 267.24711383 9.79060077 293.26171875 33.01953125 C294.89049581 34.64124203 296.45421419 36.29963561 298 38 C299.2065625 39.175625 299.2065625 39.175625 300.4375 40.375 C301.283125 41.24125 302.12875 42.1075 303 43 C303.56074219 43.55300781 304.12148437 44.10601563 304.69921875 44.67578125 C316.30068702 56.7949621 323.92744684 72.15535596 329 88 C329.22300781 88.66273926 329.44601562 89.32547852 329.67578125 90.00830078 C338.7792268 118.09354729 334.18286723 152.87774635 321.18115234 178.84179688 C308.79607624 202.62601181 288.98382372 221.27271802 265 233 C263.67405895 233.36162029 262.34172256 233.70222581 261 234 C267.62695674 247.63501643 274.82440255 260.96233913 282.01220703 274.30664062 C285.18505397 280.19893236 288.34144012 286.1000407 291.5 292 C292.74992767 294.33337208 293.9999278 296.66670535 295.25 299 C302.75 313 302.75 313 304.62524414 316.50048828 C305.8743942 318.83221337 307.12358036 321.16391912 308.37280273 323.49560547 C311.51110414 329.35338635 314.64876801 335.21150713 317.78515625 341.0703125 C324.07686255 352.82258058 330.37471747 364.57153926 336.6875 376.3125 C337.55193726 377.9224585 337.55193726 377.9224585 338.43383789 379.56494141 C340.70141136 383.77880095 342.96998107 387.97959163 345.39453125 392.10546875 C347 395 347 395 347 397 C313.01 397 279.02 397 244 397 C220.26126613 350.65294816 220.26126613 350.65294816 212.35717773 335.16018677 C205.94553478 322.59280719 199.53010394 310.02740135 193.09375 297.47265625 C192.6186499 296.54581024 192.1435498 295.61896423 191.65405273 294.66403198 C189.42026661 290.30667564 187.18552776 285.94981206 184.94921875 281.59375 C182.62589666 277.06601464 180.31083796 272.53411761 178 268 C177.6090918 267.2348407 177.21818359 266.4696814 176.81542969 265.68133545 C175.67460248 263.44472299 174.53955084 261.20527744 173.40625 258.96484375 C173.0611438 258.28974258 172.7160376 257.61464142 172.36047363 256.91908264 C170 252.22952141 170 252.22952141 170 250 C144.26 250 118.52 250 92 250 C92 298.51 92 347.02 92 397 C61.64 397 31.28 397 0 397 C0 265.99 0 134.98 0 0 Z " fill="#FEFEFE" transform="translate(791,532)"/>
<path d="M0 0 C2.49355906 0.39471609 4.99280553 0.72226292 7.49560547 1.05322266 C54.31549117 7.62978335 97.9989269 27.47073731 135.18701172 56.34619141 C133.92569594 59.79938202 132.48932507 62.56454902 130.28076172 65.49853516 C129.70704834 66.2675415 129.13333496 67.03654785 128.54223633 67.82885742 C127.93001221 68.63895264 127.31778809 69.44904785 126.68701172 70.28369141 C125.40626559 71.99924162 124.12632183 73.71539113 122.84716797 75.43212891 C122.21955566 76.27227539 121.59194336 77.11242187 120.9453125 77.97802734 C118.63190637 81.09383398 116.36925112 84.24321405 114.12451172 87.40869141 C110.3375174 92.73984365 106.51987956 98.04791341 102.68701172 103.34619141 C97.15756967 110.9919907 91.66088363 118.66052926 86.18701172 126.34619141 C81.78328031 123.91898063 77.82466461 121.41455333 73.87451172 118.28369141 C38.11725213 91.26709527 -8.31971148 73.56237567 -53.62353516 78.66259766 C-68.75864013 80.91373962 -86.11195329 85.12867648 -95.79736328 97.97900391 C-100.60073335 105.82450834 -101.56436107 112.17318196 -100.81298828 121.34619141 C-98.83379455 129.33826176 -95.076718 134.22809864 -88.31298828 138.84619141 C-63.76809932 153.31095101 -30.04837569 154.40810554 -2.44152832 158.87310791 C3.19883419 159.78551597 8.83814102 160.70398534 14.47615051 161.63082695 C17.07331343 162.05537031 19.67176438 162.47122815 22.27038574 162.88673401 C32.10469586 164.48674758 41.6151663 166.56365163 51.18701172 169.34619141 C52.48412834 169.71954117 52.48412834 169.71954117 53.80744934 170.10043335 C84.6873015 179.12614579 113.40886137 196.21620008 129.44091797 224.95849609 C144.4794428 253.16334074 144.43678332 287.06738115 135.36474609 317.13769531 C124.85119557 349.45853111 100.17257503 372.23200328 70.56201172 387.40869141 C58.32062941 393.46737845 45.67544376 397.9950307 32.37451172 401.09619141 C31.18801025 401.37595825 31.18801025 401.37595825 29.97753906 401.66137695 C12.14016112 405.5479376 -5.63119186 406.86179126 -23.85327148 406.79223633 C-27.2447556 406.78370583 -30.6345584 406.81267177 -34.02587891 406.84423828 C-48.67616532 406.88990816 -62.4893837 405.39341095 -76.81298828 402.34619141 C-78.70827271 401.94956299 -78.70827271 401.94956299 -80.6418457 401.54492188 C-83.71721112 400.87510137 -86.7612837 400.11645338 -89.81298828 399.34619141 C-91.18781553 399.03033436 -92.56282967 398.71529017 -93.93798828 398.40087891 C-132.89109179 389.18033947 -167.81916872 368.64968302 -197.93798828 342.79150391 C-200.52528486 340.59089567 -203.14853916 338.4522817 -205.81298828 336.34619141 C-205.21869872 333.22467907 -204.29211459 331.37534423 -202.25830078 328.94775391 C-201.73163818 328.31087646 -201.20497559 327.67399902 -200.66235352 327.01782227 C-200.09331299 326.34243408 -199.52427246 325.6670459 -198.93798828 324.97119141 C-197.74300538 323.52798566 -196.54901098 322.08396091 -195.35595703 320.63916016 C-194.75702637 319.91647949 -194.1580957 319.19379883 -193.54101562 318.44921875 C-191.0617451 315.4319206 -188.65125695 312.36357254 -186.25048828 309.28369141 C-181.976299 303.81453403 -177.65555398 298.3848674 -173.30859375 292.97338867 C-170.77908502 289.81994544 -168.26663927 286.65517984 -165.78564453 283.46337891 C-165.29644531 282.83496094 -164.80724609 282.20654297 -164.30322266 281.55908203 C-163.38355254 280.3752112 -162.46666174 279.18917341 -161.55322266 278.00048828 C-158.84129122 274.5113315 -155.98874832 271.4026474 -152.81298828 268.34619141 C-152.02537109 269.02423828 -151.23775391 269.70228516 -150.42626953 270.40087891 C-109.42891144 305.51874625 -64.3262407 329.80386826 -8.81298828 326.34619141 C10.97734313 324.62255325 30.30145826 319.33060161 44.18701172 304.34619141 C50.17096893 295.4017501 50.24213639 284.73893289 49.18701172 274.34619141 C47.21906648 266.90662274 42.60393675 261.46194427 36.18701172 257.34619141 C20.74394263 249.35907542 4.13882052 245.66838864 -12.88134766 242.94955444 C-16.99726655 242.29196894 -21.10886358 241.60899293 -25.22091675 240.92771912 C-27.32660334 240.57909072 -29.43250011 240.23172939 -31.53860474 239.88563538 C-41.81363682 238.19451324 -52.06507619 236.38111747 -62.31298828 234.53369141 C-63.87946988 234.25322149 -65.44595732 233.97278428 -67.01245117 233.69238281 C-106.30761195 226.62968426 -146.87941942 217.52390807 -171.58642578 182.85791016 C-177.87268969 173.37361243 -182.37805848 163.41317602 -185.62548828 152.53369141 C-185.83254395 151.84065918 -186.03959961 151.14762695 -186.25292969 150.43359375 C-188.87837347 141.17265599 -189.02746891 132.03826472 -189.05322266 122.4675293 C-189.06285835 120.31274751 -189.09392331 118.15895075 -189.12548828 116.00439453 C-189.31633117 91.04668328 -180.69861265 67.64547786 -164.81298828 48.34619141 C-164.10271484 47.48251953 -163.39244141 46.61884766 -162.66064453 45.72900391 C-144.09462809 24.17496674 -118.00000909 11.30872113 -90.81298828 4.34619141 C-89.81267578 4.06259766 -88.81236328 3.77900391 -87.78173828 3.48681641 C-60.58519263 -3.67786498 -27.80704492 -4.51956545 0 0 Z " fill="#FEFEFE" transform="translate(563.81298828125,527.65380859375)"/>
<path d="M0 0 C24.97441861 -0.08021762 24.97441861 -0.08021762 35.671875 -0.09765625 C42.95315489 -0.10958246 50.23438417 -0.12364693 57.515625 -0.15087891 C63.39005842 -0.17271032 69.26443751 -0.18459027 75.13890839 -0.18975449 C77.37303268 -0.19343181 79.60715421 -0.20061243 81.84125519 -0.21146011 C101.64799211 -0.30375187 119.93677218 0.07420946 135.8125 13.73046875 C144.3064336 22.54292486 148.58390035 32.64176134 148.4375 44.75 C148.42614014 46.06834839 148.42614014 46.06834839 148.41455078 47.41333008 C148.09327279 60.15540297 143.66134157 70.79377486 134.4375 79.6875 C118.61331854 92.65370192 99.30852352 92.43128465 79.98046875 92.29296875 C77.66734596 92.28736408 75.35421957 92.2830981 73.04109192 92.28010559 C66.99292942 92.26872541 60.9449877 92.23931776 54.89691162 92.20599365 C47.6188081 92.16970792 40.3406302 92.15609909 33.06246185 92.13863373 C22.04148832 92.10967584 11.02099794 92.05214069 0 92 C0 61.64 0 31.28 0 0 Z " fill="#010101" transform="translate(883,612)"/>
</svg>
